<?xml version="1.0" standalone="no"?>
<!DOCTYPE svg PUBLIC "-//W3C//DTD SVG 20010904//EN"
 "http://www.w3.org/TR/2001/REC-SVG-20010904/DTD/svg10.dtd">
<svg version="1.0" xmlns="http://www.w3.org/2000/svg"
 width="928.000000pt" height="620.000000pt" viewBox="0 0 928.000000 620.000000"
 preserveAspectRatio="xMidYMid meet">
<metadata>
Created by potrace 1.16, written by Peter Selinger 2001-2019
</metadata>
<g transform="translate(0.000000,620.000000) scale(0.100000,-0.100000)"
fill="#000000" stroke="none">
<path d="M424 6162 c-39 -21 -90 -52 -115 -70 -62 -45 -166 -150 -192 -192
-11 -19 -23 -37 -26 -40 -4 -3 -14 -21 -25 -40 -10 -19 -28 -51 -40 -70 l-21
-35 0 -2446 0 -2445 25 -50 c14 -27 28 -50 33 -52 4 -2 7 -10 7 -17 0 -8 6
-20 13 -27 7 -7 22 -29 34 -48 21 -34 112 -125 197 -198 53 -45 202 -116 308
-146 221 -63 464 -78 1231 -74 l597 3 0 -73 c0 -74 10 -107 39 -129 13 -10
756 -12 3404 -13 l3387 0 0 270 0 270 -2035 0 -2035 0 0 2650 0 2650 2035 0
2035 0 0 120 0 120 -2823 0 -2822 0 -36 -24 c-55 -37 -69 -77 -69 -193 l0 -98
-20 25 c-11 14 -23 34 -26 45 -4 11 -10 22 -13 25 -4 3 -17 21 -28 40 -28 45
-133 149 -198 196 -27 20 -80 51 -117 70 l-68 34 -1282 0 -1283 -1 -71 -37z
m2066 -52 c52 -6 111 -15 130 -20 19 -4 -356 -8 -837 -9 -480 -1 -873 1 -873
3 0 7 168 28 288 36 177 12 1179 5 1292 -10z m352 -80 c264 -96 464 -307 558
-589 32 -95 60 -281 60 -396 0 -41 5 -77 10 -80 7 -4 10 -582 10 -1700 0
-1118 -3 -1696 -10 -1700 -5 -3 -10 -39 -10 -80 0 -101 -26 -288 -51 -371 -54
-179 -182 -371 -317 -475 -152 -116 -298 -170 -597 -222 -99 -17 -1331 -17
-1430 0 -299 52 -445 106 -597 222 -135 104 -263 296 -317 475 -25 83 -51 270
-51 371 0 41 -5 77 -10 80 -14 9 -14 3391 0 3400 6 3 10 39 10 80 0 101 26
289 51 371 32 106 106 245 176 334 60 74 173 174 233 205 l26 14 -4 -62 c-3
-57 -6 -64 -40 -91 -222 -177 -333 -440 -362 -851 -13 -186 -13 -3214 0 -3400
35 -502 195 -791 521 -944 100 -47 191 -73 337 -98 95 -16 176 -18 742 -18
566 0 647 2 742 18 146 25 237 51 337 98 326 153 486 442 521 944 13 186 13
3214 0 3400 -24 337 -101 569 -248 742 -54 64 -166 151 -249 192 -48 24 -64
37 -69 59 -3 15 -20 44 -36 65 -16 20 -27 37 -24 37 3 0 42 -14 88 -30z m164
-258 c107 -88 186 -196 248 -342 40 -94 73 -276 85 -470 15 -226 15 -3178 0
-3395 -10 -151 -30 -281 -63 -403 -17 -64 -85 -199 -131 -262 -75 -102 -200
-202 -320 -255 -209 -92 -416 -115 -1045 -115 -404 0 -627 10 -772 36 -214 36
-373 110 -501 232 -180 173 -261 389 -286 767 -15 217 -15 3169 0 3395 12 194
45 375 85 470 54 129 124 230 213 312 l56 51 5 -2084 c5 -1954 6 -2087 22
-2111 10 -15 34 -39 55 -55 l36 -28 1007 0 1007 0 36 28 c21 16 45 40 55 55
16 25 17 157 20 2160 l2 2133 61 -33 c33 -18 89 -57 125 -86z m1990 -116 c19
-27 18 -52 -6 -76 -19 -19 -33 -20 -490 -20 -457 0 -471 1 -490 20 -31 31 -21
78 20 93 8 3 226 5 483 4 451 -2 469 -3 483 -21z m-810 -360 c25 -25 34 -43
34 -67 0 -49 -32 -95 -75 -109 -44 -15 -74 -8 -114 26 -80 67 -28 182 83 184
30 0 45 -7 72 -34z m-1572 -7 l26 -20 0 -150 0 -149 45 0 45 0 0 -1645 c0
-1452 -2 -1649 -15 -1675 -33 -63 18 -60 -1015 -60 -1033 0 -982 -3 -1015 60
-13 26 -15 223 -15 1675 l0 1645 50 0 50 0 0 145 c0 142 1 147 25 170 l24 25
884 0 c879 0 884 0 911 -21z m930 -4921 c8 -17 -6 -18 -210 -18 l-219 0 55 32
c30 17 68 43 84 57 93 82 170 160 189 191 12 19 27 41 34 48 7 7 13 20 13 28
0 8 4 14 9 14 5 0 12 10 17 23 5 13 10 -51 14 -168 3 -104 9 -198 14 -207z"/>
<path d="M1652 4100 c-53 -32 -74 -75 -69 -143 3 -49 8 -62 37 -92 106 -110
287 -24 267 126 -14 105 -143 165 -235 109z"/>
<path d="M2095 3686 c-117 -51 -120 -216 -5 -273 42 -22 55 -23 297 -23 l253
0 0 155 0 155 -257 0 c-192 -1 -266 -4 -288 -14z"/>
<path d="M7940 3381 c-19 -10 -46 -33 -58 -52 -20 -29 -23 -43 -20 -93 4 -53
8 -62 45 -96 55 -52 107 -60 170 -28 58 29 84 63 90 121 14 118 -120 205 -227
148z"/>
<path d="M6325 2966 c-37 -16 -82 -67 -91 -102 -15 -59 12 -126 70 -168 27
-21 39 -21 668 -24 633 -2 641 -2 684 18 112 55 114 214 3 270 -37 19 -61 20
-671 20 -504 -1 -639 -3 -663 -14z"/>
<path d="M9212 2950 c-45 -28 -72 -76 -72 -130 0 -54 27 -102 72 -130 67 -40
68 -38 68 130 0 168 -1 170 -68 130z"/>
</g>
</svg>
